<mxfile host="app.diagrams.net" agent="Mozilla/5.0 (Windows NT 10.0; Win64; x64) AppleWebKit/537.36 (KHTML, like Gecko) Chrome/138.0.0.0 Safari/537.36" version="26.2.14">
  <diagram name="Page-1" id="2lnul7Okv8dXi3eSocWT">
    <mxGraphModel grid="1" page="1" gridSize="10" guides="1" tooltips="1" connect="1" arrows="1" fold="1" pageScale="1" pageWidth="850" pageHeight="1100" math="0" shadow="0">
      <root>
        <mxCell id="0" />
        <mxCell id="1" parent="0" />
        <mxCell id="Fnjf1pHzxSI7bFmDOxUl-13" style="edgeStyle=orthogonalEdgeStyle;rounded=0;orthogonalLoop=1;jettySize=auto;html=1;" edge="1" parent="1" target="Fnjf1pHzxSI7bFmDOxUl-12">
          <mxGeometry relative="1" as="geometry">
            <mxPoint x="646.67" y="109.38" as="sourcePoint" />
            <mxPoint x="439.99999999999994" y="240" as="targetPoint" />
            <Array as="points">
              <mxPoint x="647" y="230" />
            </Array>
          </mxGeometry>
        </mxCell>
        <mxCell id="Fnjf1pHzxSI7bFmDOxUl-2" value="CSV File" style="sketch=0;aspect=fixed;pointerEvents=1;shadow=0;dashed=0;html=1;strokeColor=none;labelPosition=center;verticalLabelPosition=bottom;verticalAlign=top;align=center;fillColor=#3399FF;shape=mxgraph.mscae.enterprise.document" vertex="1" parent="1">
          <mxGeometry x="610" y="38.13" width="57" height="71.25" as="geometry" />
        </mxCell>
        <mxCell id="Fnjf1pHzxSI7bFmDOxUl-15" style="edgeStyle=orthogonalEdgeStyle;rounded=0;orthogonalLoop=1;jettySize=auto;html=1;entryX=1;entryY=0.25;entryDx=0;entryDy=0;" edge="1" parent="1" source="Fnjf1pHzxSI7bFmDOxUl-5" target="Fnjf1pHzxSI7bFmDOxUl-12">
          <mxGeometry relative="1" as="geometry">
            <mxPoint x="530" y="230" as="targetPoint" />
            <Array as="points">
              <mxPoint x="530" y="210" />
              <mxPoint x="462" y="210" />
            </Array>
          </mxGeometry>
        </mxCell>
        <mxCell id="Fnjf1pHzxSI7bFmDOxUl-5" value="&lt;div&gt;Excel File (.xlsx)&lt;/div&gt;&lt;div&gt;&lt;br&gt;&lt;/div&gt;" style="verticalLabelPosition=bottom;html=1;verticalAlign=top;align=center;strokeColor=none;fillColor=#97D077;shape=mxgraph.azure.file_2;pointerEvents=1;" vertex="1" parent="1">
          <mxGeometry x="500" y="38.75" width="60" height="70" as="geometry" />
        </mxCell>
        <mxCell id="Fnjf1pHzxSI7bFmDOxUl-22" style="edgeStyle=orthogonalEdgeStyle;rounded=0;orthogonalLoop=1;jettySize=auto;html=1;" edge="1" parent="1" source="Fnjf1pHzxSI7bFmDOxUl-9">
          <mxGeometry relative="1" as="geometry">
            <mxPoint x="340" y="240" as="targetPoint" />
            <Array as="points">
              <mxPoint x="140" y="240" />
            </Array>
          </mxGeometry>
        </mxCell>
        <mxCell id="Fnjf1pHzxSI7bFmDOxUl-9" value="" style="sketch=0;outlineConnect=0;fontColor=#232F3E;gradientColor=none;fillColor=#C925D1;strokeColor=none;dashed=0;verticalLabelPosition=bottom;verticalAlign=top;align=center;html=1;fontSize=12;fontStyle=0;aspect=fixed;pointerEvents=1;shape=mxgraph.aws4.rds_mysql_instance;" vertex="1" parent="1">
          <mxGeometry x="100" y="36.63" width="84.25" height="84.25" as="geometry" />
        </mxCell>
        <mxCell id="Fnjf1pHzxSI7bFmDOxUl-23" style="edgeStyle=orthogonalEdgeStyle;rounded=0;orthogonalLoop=1;jettySize=auto;html=1;entryX=0.5;entryY=0;entryDx=0;entryDy=0;" edge="1" parent="1" source="Fnjf1pHzxSI7bFmDOxUl-10" target="Fnjf1pHzxSI7bFmDOxUl-12">
          <mxGeometry relative="1" as="geometry" />
        </mxCell>
        <mxCell id="Fnjf1pHzxSI7bFmDOxUl-10" value="" style="aspect=fixed;sketch=0;html=1;dashed=0;whitespace=wrap;verticalLabelPosition=bottom;verticalAlign=top;fillColor=#2875E2;strokeColor=#ffffff;points=[[0.005,0.63,0],[0.1,0.2,0],[0.9,0.2,0],[0.5,0,0],[0.995,0.63,0],[0.72,0.99,0],[0.5,1,0],[0.28,0.99,0]];shape=mxgraph.kubernetes.icon2;kubernetesLabel=1;prIcon=api" vertex="1" parent="1">
          <mxGeometry x="360" y="38.75" width="83.33" height="80" as="geometry" />
        </mxCell>
        <mxCell id="Fnjf1pHzxSI7bFmDOxUl-17" style="edgeStyle=orthogonalEdgeStyle;rounded=0;orthogonalLoop=1;jettySize=auto;html=1;entryX=0;entryY=0.25;entryDx=0;entryDy=0;" edge="1" parent="1" source="Fnjf1pHzxSI7bFmDOxUl-11" target="Fnjf1pHzxSI7bFmDOxUl-12">
          <mxGeometry relative="1" as="geometry">
            <Array as="points">
              <mxPoint x="280" y="220" />
            </Array>
          </mxGeometry>
        </mxCell>
        <mxCell id="Fnjf1pHzxSI7bFmDOxUl-11" value="&lt;div&gt;Google Cloud Storage / AWS S3&lt;/div&gt;&lt;div&gt;&lt;br&gt;&lt;/div&gt;" style="html=1;whiteSpace=wrap;strokeColor=none;fillColor=#0079D6;labelPosition=center;verticalLabelPosition=middle;verticalAlign=top;align=center;fontSize=12;outlineConnect=0;spacingTop=-6;fontColor=#FFFFFF;sketch=0;shape=mxgraph.sitemap.cloud;" vertex="1" parent="1">
          <mxGeometry x="220" y="40.88" width="110" height="80" as="geometry" />
        </mxCell>
        <mxCell id="Fnjf1pHzxSI7bFmDOxUl-12" value="Extract&#xa;(Python – requests, open(), read_csv)" style="shape=ext;double=1;rounded=1;whiteSpace=wrap;html=1;fillColor=#FFFF99;" vertex="1" parent="1">
          <mxGeometry x="341.67" y="200" width="120" height="60" as="geometry" />
        </mxCell>
        <mxCell id="Fnjf1pHzxSI7bFmDOxUl-24" value="&lt;div&gt;Transform&lt;/div&gt;&lt;div&gt;(Pandas – Cleaning, Filtering, Join)&lt;/div&gt;&lt;div&gt;&lt;br&gt;&lt;/div&gt;" style="rounded=1;whiteSpace=wrap;html=1;fillColor=#00FFFF;" vertex="1" parent="1">
          <mxGeometry x="280" y="300" width="260" height="70" as="geometry" />
        </mxCell>
        <mxCell id="Fnjf1pHzxSI7bFmDOxUl-26" style="edgeStyle=orthogonalEdgeStyle;rounded=0;orthogonalLoop=1;jettySize=auto;html=1;entryX=0.473;entryY=0.057;entryDx=0;entryDy=0;entryPerimeter=0;" edge="1" parent="1" source="Fnjf1pHzxSI7bFmDOxUl-12" target="Fnjf1pHzxSI7bFmDOxUl-24">
          <mxGeometry relative="1" as="geometry">
            <Array as="points">
              <mxPoint x="403" y="270" />
              <mxPoint x="403" y="270" />
            </Array>
          </mxGeometry>
        </mxCell>
        <mxCell id="Fnjf1pHzxSI7bFmDOxUl-28" value="&lt;div&gt;Load&lt;/div&gt;&lt;div&gt;&lt;br&gt;&lt;/div&gt;&lt;div&gt;(PostgreSQL – insert, to_sql)&lt;/div&gt;&lt;div&gt;&lt;br&gt;&lt;/div&gt;" style="strokeWidth=2;html=1;shape=mxgraph.flowchart.database;whiteSpace=wrap;fillColor=#E6E6E6;" vertex="1" parent="1">
          <mxGeometry x="351.67" y="410" width="110" height="80" as="geometry" />
        </mxCell>
        <mxCell id="Fnjf1pHzxSI7bFmDOxUl-30" style="edgeStyle=orthogonalEdgeStyle;rounded=0;orthogonalLoop=1;jettySize=auto;html=1;entryX=0.5;entryY=0;entryDx=0;entryDy=0;entryPerimeter=0;" edge="1" parent="1" source="Fnjf1pHzxSI7bFmDOxUl-24" target="Fnjf1pHzxSI7bFmDOxUl-28">
          <mxGeometry relative="1" as="geometry">
            <Array as="points">
              <mxPoint x="407" y="380" />
              <mxPoint x="407" y="380" />
            </Array>
          </mxGeometry>
        </mxCell>
        <mxCell id="Fnjf1pHzxSI7bFmDOxUl-34" style="edgeStyle=orthogonalEdgeStyle;rounded=0;orthogonalLoop=1;jettySize=auto;html=1;entryX=0;entryY=0.5;entryDx=0;entryDy=0;shape=flexArrow;" edge="1" parent="1" source="Fnjf1pHzxSI7bFmDOxUl-31" target="Fnjf1pHzxSI7bFmDOxUl-24">
          <mxGeometry relative="1" as="geometry">
            <mxPoint x="230" y="340" as="targetPoint" />
            <Array as="points">
              <mxPoint x="260" y="589" />
              <mxPoint x="260" y="335" />
            </Array>
          </mxGeometry>
        </mxCell>
        <mxCell id="Fnjf1pHzxSI7bFmDOxUl-35" value="&lt;div&gt;Schedule + Monitor&lt;/div&gt;&lt;div&gt;&lt;br&gt;&lt;/div&gt;" style="edgeLabel;html=1;align=center;verticalAlign=middle;resizable=0;points=[];" connectable="0" vertex="1" parent="Fnjf1pHzxSI7bFmDOxUl-34">
          <mxGeometry x="0.3704" y="4" relative="1" as="geometry">
            <mxPoint as="offset" />
          </mxGeometry>
        </mxCell>
        <mxCell id="Fnjf1pHzxSI7bFmDOxUl-38" value="" style="edgeStyle=orthogonalEdgeStyle;rounded=0;orthogonalLoop=1;jettySize=auto;html=1;entryX=1;entryY=1;entryDx=0;entryDy=0;shape=flexArrow;" edge="1" parent="1">
          <mxGeometry relative="1" as="geometry">
            <mxPoint x="455.6700000000001" y="600" as="sourcePoint" />
            <mxPoint x="461.6700000000001" y="250" as="targetPoint" />
            <Array as="points">
              <mxPoint x="581" y="600" />
              <mxPoint x="581" y="250" />
            </Array>
          </mxGeometry>
        </mxCell>
        <mxCell id="Fnjf1pHzxSI7bFmDOxUl-40" value="&lt;div&gt;Schedule + Monitor&lt;/div&gt;&lt;div&gt;&lt;br&gt;&lt;/div&gt;" style="edgeLabel;html=1;align=center;verticalAlign=middle;resizable=0;points=[];" connectable="0" vertex="1" parent="Fnjf1pHzxSI7bFmDOxUl-38">
          <mxGeometry x="-0.2328" y="-3" relative="1" as="geometry">
            <mxPoint x="-4" y="-107" as="offset" />
          </mxGeometry>
        </mxCell>
        <mxCell id="Fnjf1pHzxSI7bFmDOxUl-42" style="edgeStyle=orthogonalEdgeStyle;rounded=0;orthogonalLoop=1;jettySize=auto;html=1;entryX=1;entryY=0.5;entryDx=0;entryDy=0;entryPerimeter=0;shape=flexArrow;" edge="1" parent="1" source="Fnjf1pHzxSI7bFmDOxUl-31" target="Fnjf1pHzxSI7bFmDOxUl-28">
          <mxGeometry relative="1" as="geometry">
            <mxPoint x="490" y="450" as="targetPoint" />
            <Array as="points">
              <mxPoint x="490" y="589" />
              <mxPoint x="490" y="450" />
            </Array>
          </mxGeometry>
        </mxCell>
        <mxCell id="Fnjf1pHzxSI7bFmDOxUl-43" value="&lt;div&gt;Schedule + Monitor&lt;/div&gt;&lt;div&gt;&lt;br&gt;&lt;/div&gt;" style="edgeLabel;html=1;align=center;verticalAlign=middle;resizable=0;points=[];" connectable="0" vertex="1" parent="Fnjf1pHzxSI7bFmDOxUl-42">
          <mxGeometry x="0.1405" relative="1" as="geometry">
            <mxPoint as="offset" />
          </mxGeometry>
        </mxCell>
        <mxCell id="Fnjf1pHzxSI7bFmDOxUl-31" value="&lt;div&gt;Log &amp;amp; Monitor&lt;/div&gt;&lt;div&gt;(Airflow – DAGs, Schedule, Logging)&lt;/div&gt;&lt;div&gt;&lt;br&gt;&lt;/div&gt;" style="sketch=0;points=[[0,0,0],[0.25,0,0],[0.5,0,0],[0.75,0,0],[1,0,0],[0,1,0],[0.25,1,0],[0.5,1,0],[0.75,1,0],[1,1,0],[0,0.25,0],[0,0.5,0],[0,0.75,0],[1,0.25,0],[1,0.5,0],[1,0.75,0]];outlineConnect=0;fontColor=#232F3E;fillColor=#E7157B;strokeColor=#ffffff;dashed=0;verticalLabelPosition=bottom;verticalAlign=top;align=center;html=1;fontSize=12;fontStyle=0;aspect=fixed;shape=mxgraph.aws4.resourceIcon;resIcon=mxgraph.aws4.managed_workflows_for_apache_airflow;" vertex="1" parent="1">
          <mxGeometry x="357.67" y="540" width="98" height="98" as="geometry" />
        </mxCell>
      </root>
    </mxGraphModel>
  </diagram>
</mxfile>
